<mxfile host="app.diagrams.net" modified="2024-04-24T00:18:32.704Z" agent="Mozilla/5.0 (Windows NT 10.0; Win64; x64) AppleWebKit/537.36 (KHTML, like Gecko) Chrome/124.0.0.0 Safari/537.36" version="24.2.8" etag="DWgjCC5mU2R3mXbEqFYP" type="google">
  <diagram name="PÃ¡gina-1" id="IR-rVtJwO7Owrc6vYqq_">
    <mxGraphModel>
      <root>
        <mxCell id="0" />
        <mxCell id="1" parent="0" />
      </root>
    </mxGraphModel>
  </diagram>
</mxfile>
